#tb 0: 1/25
#media_type 0: video
#codec_id 0: rawvideo
#dimensions 0: 176x144
#sar 0: 0/1
0,          0,          0,        1,    38016, 0x06150e88
0,          1,          1,        1,    38016, 0x32d90103
0,          2,          2,        1,    38016, 0xb32d338f
0,          3,          3,        1,    38016, 0x653c5fc3
0,          4,          4,        1,    38016, 0x69ec8bce
0,          5,          5,        1,    38016, 0x354fa53a
0,          6,          6,        1,    38016, 0x2ee79c2c
0,          7,          7,        1,    38016, 0x2c50666c
0,          8,          8,        1,    38016, 0x65ea824d
0,          9,          9,        1,    38016, 0x7419948b
0,         10,         10,        1,    38016, 0x19b298a0
0,         11,         11,        1,    38016, 0x29087291
0,         12,         12,        1,    38016, 0x92be1e95
0,         13,         13,        1,    38016, 0x9699119a
0,         14,         14,        1,    38016, 0xa4863bff
0,         15,         15,        1,    38016, 0x7dfc4f6b
0,         16,         16,        1,    38016, 0x946e5cfa
0,         17,         17,        1,    38016, 0x57287bdc
0,         18,         18,        1,    38016, 0xe7ae8bbe
0,         19,         19,        1,    38016, 0x21d367c7
0,         20,         20,        1,    38016, 0x9d0551c2
0,         21,         21,        1,    38016, 0xecc980b5
0,         22,         22,        1,    38016, 0x0ac4a749
0,         23,         23,        1,    38016, 0x9162262f
0,         24,         24,        1,    38016, 0x4a071c14
0,         25,         25,        1,    38016, 0x8571fae8
0,         26,         26,        1,    38016, 0xc0843707
0,         27,         27,        1,    38016, 0x7b4a63b0
0,         28,         28,        1,    38016, 0x5faf5d86
0,         29,         29,        1,    38016, 0x64623f6b
0,         30,         30,        1,    38016, 0xa97b523a
0,         31,         31,        1,    38016, 0x4048459a
0,         32,         32,        1,    38016, 0x56ba3d73
0,         33,         33,        1,    38016, 0x5394355a
0,         34,         34,        1,    38016, 0xb6c0176e
0,         35,         35,        1,    38016, 0x668c0772
0,         36,         36,        1,    38016, 0x86feeae8
0,         37,         37,        1,    38016, 0x9e75f9af
0,         38,         38,        1,    38016, 0xd72de054
0,         39,         39,        1,    38016, 0x39eb8743
0,         40,         40,        1,    38016, 0xd07b4d8e
0,         41,         41,        1,    38016, 0x89c045a9
0,         42,         42,        1,    38016, 0x209542e6
0,         43,         43,        1,    38016, 0xc43886ed
0,         44,         44,        1,    38016, 0xe091e433
0,         45,         45,        1,    38016, 0x176b1f65
0,         46,         46,        1,    38016, 0xd7730c3e
0,         47,         47,        1,    38016, 0x2bb90778
0,         48,         48,        1,    38016, 0x9b4540a8
0,         49,         49,        1,    38016, 0xd34c50db
0,         50,         50,        1,    38016, 0xf8007af9
0,         51,         51,        1,    38016, 0x54748466
0,         52,         52,        1,    38016, 0x20ab88a5
0,         53,         53,        1,    38016, 0x6aca8887
0,         54,         54,        1,    38016, 0xa1bf899f
0,         55,         55,        1,    38016, 0x8145966d
0,         56,         56,        1,    38016, 0x98f5a29c
0,         57,         57,        1,    38016, 0x4ed1b4d1
0,         58,         58,        1,    38016, 0x3177b95c
0,         59,         59,        1,    38016, 0x2b2cc4b2
0,         60,         60,        1,    38016, 0xf389db1e
0,         61,         61,        1,    38016, 0xfc6fca35
0,         62,         62,        1,    38016, 0x5f06af41
0,         63,         63,        1,    38016, 0x93a368d6
0,         64,         64,        1,    38016, 0x3de421f3
0,         65,         65,        1,    38016, 0x1e3f4b8d
0,         66,         66,        1,    38016, 0x6c3e6d4a
0,         67,         67,        1,    38016, 0x96ab4569
0,         68,         68,        1,    38016, 0x0de2d417
0,         69,         69,        1,    38016, 0x1a8a8d91
0,         70,         70,        1,    38016, 0xffb96503
0,         71,         71,        1,    38016, 0x1e1b4959
0,         72,         72,        1,    38016, 0x6aa267cd
0,         73,         73,        1,    38016, 0xcb87a00c
0,         74,         74,        1,    38016, 0x3b8ac17c
0,         75,         75,        1,    38016, 0x1348bf7b
0,         76,         76,        1,    38016, 0x1807b42d
0,         77,         77,        1,    38016, 0x22dfa6cb
0,         78,         78,        1,    38016, 0x3d23a622
0,         79,         79,        1,    38016, 0x662cb1e0
0,         80,         80,        1,    38016, 0x6ecfafaf
0,         81,         81,        1,    38016, 0xbffcaa71
0,         82,         82,        1,    38016, 0xf75ab93f
0,         83,         83,        1,    38016, 0xaea796bf
0,         84,         84,        1,    38016, 0x4a547fe8
0,         85,         85,        1,    38016, 0x2f1a800f
0,         86,         86,        1,    38016, 0xc7788261
0,         87,         87,        1,    38016, 0x8be17fd3
0,         88,         88,        1,    38016, 0xe830830c
0,         89,         89,        1,    38016, 0x62345ab7
0,         90,         90,        1,    38016, 0x70f926c6
0,         91,         91,        1,    38016, 0x37e94bf0
0,         92,         92,        1,    38016, 0xb1509312
0,         93,         93,        1,    38016, 0xc70fea7a
0,         94,         94,        1,    38016, 0x8062243b
0,         95,         95,        1,    38016, 0xe64a48b1
0,         96,         96,        1,    38016, 0x6f0c4dd7
0,         97,         97,        1,    38016, 0x5f9c53b4
0,         98,         98,        1,    38016, 0x4c5e506c
0,         99,         99,        1,    38016, 0xb7c631ef
0,        100,        100,        1,    38016, 0x30f302a9
0,        101,        101,        1,    38016, 0x4f28ebf0
0,        102,        102,        1,    38016, 0x3145d3d3
0,        103,        103,        1,    38016, 0x69b6c92f
0,        104,        104,        1,    38016, 0xa3b2c646
0,        105,        105,        1,    38016, 0x5ee00dec
0,        106,        106,        1,    38016, 0x313ee3ea
0,        107,        107,        1,    38016, 0x4002070e
0,        108,        108,        1,    38016, 0x5e0106b1
0,        109,        109,        1,    38016, 0xd03b2c4d
0,        110,        110,        1,    38016, 0xdd085316
0,        111,        111,        1,    38016, 0xb47a5f86
0,        112,        112,        1,    38016, 0xc25d5750
0,        113,        113,        1,    38016, 0x16ad52b3
0,        114,        114,        1,    38016, 0xa4fe2754
0,        115,        115,        1,    38016, 0xac5dfb18
0,        116,        116,        1,    38016, 0xe36ee83b
0,        117,        117,        1,    38016, 0xc708e54e
0,        118,        118,        1,    38016, 0x6c4beb85
0,        119,        119,        1,    38016, 0xf19fd825
0,        120,        120,        1,    38016, 0x94e7bb13
0,        121,        121,        1,    38016, 0x026e9ddf
0,        122,        122,        1,    38016, 0xdc71a591
0,        123,        123,        1,    38016, 0xb46eb169
0,        124,        124,        1,    38016, 0x25f5d5f4
0,        125,        125,        1,    38016, 0x27da203d
0,        126,        126,        1,    38016, 0xed217513
0,        127,        127,        1,    38016, 0x78d7bb08
0,        128,        128,        1,    38016, 0x623dd66d
0,        129,        129,        1,    38016, 0xd68c9f82
0,        130,        130,        1,    38016, 0x88b059e2
0,        131,        131,        1,    38016, 0x623159aa
0,        132,        132,        1,    38016, 0x1782245b
0,        133,        133,        1,    38016, 0x64f55b4a
0,        134,        134,        1,    38016, 0x83c7d154
0,        135,        135,        1,    38016, 0x43461c7c
0,        136,        136,        1,    38016, 0xc3e38c36
0,        137,        137,        1,    38016, 0x763394b4
0,        138,        138,        1,    38016, 0xff99749d
0,        139,        139,        1,    38016, 0x76ca13d0
0,        140,        140,        1,    38016, 0x29510aea
0,        141,        141,        1,    38016, 0x385f4309
0,        142,        142,        1,    38016, 0x142f5339
0,        143,        143,        1,    38016, 0x980ca66e
0,        144,        144,        1,    38016, 0xc330c0db
0,        145,        145,        1,    38016, 0xa7dbca0f
0,        146,        146,        1,    38016, 0x4261c683
0,        147,        147,        1,    38016, 0x6d467d81
0,        148,        148,        1,    38016, 0x1a107d17
0,        149,        149,        1,    38016, 0xd91e765a
0,        150,        150,        1,    38016, 0x789cfb94
0,        151,        151,        1,    38016, 0xc9bc9ee1
0,        152,        152,        1,    38016, 0x32f8754c
0,        153,        153,        1,    38016, 0xad906454
0,        154,        154,        1,    38016, 0xe5d6b78d
0,        155,        155,        1,    38016, 0x307bc291
0,        156,        156,        1,    38016, 0x629bdec9
0,        157,        157,        1,    38016, 0xf23ccd36
0,        158,        158,        1,    38016, 0x6105aa1b
0,        159,        159,        1,    38016, 0x3da66383
0,        160,        160,        1,    38016, 0x48ce2141
0,        161,        161,        1,    38016, 0x09fac5fd
0,        162,        162,        1,    38016, 0xa0bc208d
0,        163,        163,        1,    38016, 0x49892a74
0,        164,        164,        1,    38016, 0xfcb48093
0,        165,        165,        1,    38016, 0x850e7e4c
0,        166,        166,        1,    38016, 0x7cf24f55
0,        167,        167,        1,    38016, 0x654845f4
0,        168,        168,        1,    38016, 0x35ac5d63
0,        169,        169,        1,    38016, 0x795ea726
0,        170,        170,        1,    38016, 0xf387a03d
0,        171,        171,        1,    38016, 0x29279e19
0,        172,        172,        1,    38016, 0x48e3b03d
0,        173,        173,        1,    38016, 0xbcfb8192
0,        174,        174,        1,    38016, 0x3fe2749a
0,        175,        175,        1,    38016, 0xe0a04bbd
0,        176,        176,        1,    38016, 0x9a912cd7
0,        177,        177,        1,    38016, 0x39781e59
0,        178,        178,        1,    38016, 0x90e5131a
0,        179,        179,        1,    38016, 0x8bd90b4b
0,        180,        180,        1,    38016, 0x410dda61
0,        181,        181,        1,    38016, 0x33eb60fd
0,        182,        182,        1,    38016, 0x08e8632b
0,        183,        183,        1,    38016, 0x6163fd94
0,        184,        184,        1,    38016, 0x60af34e1
0,        185,        185,        1,    38016, 0x00016227
0,        186,        186,        1,    38016, 0xe6bd71bd
0,        187,        187,        1,    38016, 0xb40cdf28
0,        188,        188,        1,    38016, 0x3cdeb88e
0,        189,        189,        1,    38016, 0xb9ffe0d6
0,        190,        190,        1,    38016, 0xd630ce53
0,        191,        191,        1,    38016, 0x120056c2
0,        192,        192,        1,    38016, 0x0940399e
0,        193,        193,        1,    38016, 0x3d337fd0
0,        194,        194,        1,    38016, 0x6ef1f4b9
0,        195,        195,        1,    38016, 0x7e20f462
0,        196,        196,        1,    38016, 0xe397f30a
0,        197,        197,        1,    38016, 0x6eadf916
0,        198,        198,        1,    38016, 0x850e07b9
0,        199,        199,        1,    38016, 0x131b10db
0,        200,        200,        1,    38016, 0x17961d0e
0,        201,        201,        1,    38016, 0x447557da
0,        202,        202,        1,    38016, 0x93da7c0e
0,        203,        203,        1,    38016, 0xd6259239
0,        204,        204,        1,    38016, 0x2db99d95
0,        205,        205,        1,    38016, 0x648ea2bd
0,        206,        206,        1,    38016, 0xf8f46ef6
0,        207,        207,        1,    38016, 0xb85a7405
0,        208,        208,        1,    38016, 0x55dc7bbd
0,        209,        209,        1,    38016, 0xf38d76f8
0,        210,        210,        1,    38016, 0x9e860b96
0,        211,        211,        1,    38016, 0x7c5a5da7
0,        212,        212,        1,    38016, 0xdf36a619
0,        213,        213,        1,    38016, 0x327d1144
0,        214,        214,        1,    38016, 0x4a01eabd
0,        215,        215,        1,    38016, 0xee8b8717
0,        216,        216,        1,    38016, 0x874eaf23
0,        217,        217,        1,    38016, 0xddaaaf38
0,        218,        218,        1,    38016, 0xcab85271
0,        219,        219,        1,    38016, 0x970f0d3f
0,        220,        220,        1,    38016, 0x2a042dcc
0,        221,        221,        1,    38016, 0xa240e0e7
0,        222,        222,        1,    38016, 0x9564c081
0,        223,        223,        1,    38016, 0x894d82b4
0,        224,        224,        1,    38016, 0xb0748d24
0,        225,        225,        1,    38016, 0xafa56340
0,        226,        226,        1,    38016, 0x614287c6
0,        227,        227,        1,    38016, 0x4dfcaaac
0,        228,        228,        1,    38016, 0x58dab168
0,        229,        229,        1,    38016, 0x19fbb779
0,        230,        230,        1,    38016, 0x25adb4c9
0,        231,        231,        1,    38016, 0x5fc1bdae
0,        232,        232,        1,    38016, 0x6581a5d0
0,        233,        233,        1,    38016, 0x81d57061
0,        234,        234,        1,    38016, 0x43445964
0,        235,        235,        1,    38016, 0x68224a19
0,        236,        236,        1,    38016, 0xa85d390a
0,        237,        237,        1,    38016, 0xb571344d
0,        238,        238,        1,    38016, 0xd3632bfd
0,        239,        239,        1,    38016, 0x5af52535
0,        240,        240,        1,    38016, 0x21b93882
0,        241,        241,        1,    38016, 0x8da56743
0,        242,        242,        1,    38016, 0x9e7b9da2
0,        243,        243,        1,    38016, 0xc1a6bbd9
0,        244,        244,        1,    38016, 0xd77be9aa
0,        245,        245,        1,    38016, 0x2715100f
0,        246,        246,        1,    38016, 0xac8c1e30
0,        247,        247,        1,    38016, 0x110c14b9
0,        248,        248,        1,    38016, 0x5a8ff5c4
0,        249,        249,        1,    38016, 0x25d4ef19
0,        250,        250,        1,    38016, 0x080ffe7f
0,        251,        251,        1,    38016, 0x7f5b15ef
0,        252,        252,        1,    38016, 0xf97f10e1
0,        253,        253,        1,    38016, 0xdd80f7e5
0,        254,        254,        1,    38016, 0xb177df60
0,        255,        255,        1,    38016, 0x406023f6
0,        256,        256,        1,    38016, 0xf396220f
0,        257,        257,        1,    38016, 0x50fc2e7a
0,        258,        258,        1,    38016, 0x959b42da
0,        259,        259,        1,    38016, 0x61c7484a
0,        260,        260,        1,    38016, 0x09825cd1
0,        261,        261,        1,    38016, 0x0e7b6bd9
0,        262,        262,        1,    38016, 0x4a386b9e
0,        263,        263,        1,    38016, 0x817b5e14
0,        264,        264,        1,    38016, 0x51696069
0,        265,        265,        1,    38016, 0x84a35f51
0,        266,        266,        1,    38016, 0xf7758da3
0,        267,        267,        1,    38016, 0x787b6659
0,        268,        268,        1,    38016, 0xedb95942
0,        269,        269,        1,    38016, 0x4d4d8eb5
0,        270,        270,        1,    38016, 0x716cb36a
0,        271,        271,        1,    38016, 0x6556b912
0,        272,        272,        1,    38016, 0xbdd8c0b6
0,        273,        273,        1,    38016, 0xd9ffbba5
0,        274,        274,        1,    38016, 0xb5d7b4a7
0,        275,        275,        1,    38016, 0x4690a4ed
0,        276,        276,        1,    38016, 0x6fc8bdc4
0,        277,        277,        1,    38016, 0x827de512
0,        278,        278,        1,    38016, 0x897bfc43
0,        279,        279,        1,    38016, 0x41f8144a
0,        280,        280,        1,    38016, 0xff7d369e
0,        281,        281,        1,    38016, 0x526f48fa
0,        282,        282,        1,    38016, 0x53245921
0,        283,        283,        1,    38016, 0x69a3791e
0,        284,        284,        1,    38016, 0x3de095df
0,        285,        285,        1,    38016, 0x9ae2a0f2
0,        286,        286,        1,    38016, 0xd1668593
0,        287,        287,        1,    38016, 0x322c4f5b
0,        288,        288,        1,    38016, 0x15882875
0,        289,        289,        1,    38016, 0xa8886b9a
0,        290,        290,        1,    38016, 0xc6f07ac1
0,        291,        291,        1,    38016, 0xf9446d58
0,        292,        292,        1,    38016, 0x98ef5ffc
0,        293,        293,        1,    38016, 0x23434b21
0,        294,        294,        1,    38016, 0xa1f353d2
0,        295,        295,        1,    38016, 0x6b3d4452
0,        296,        296,        1,    38016, 0xd4ac32bf
0,        297,        297,        1,    38016, 0xc577065d
0,        298,        298,        1,    38016, 0x2d01111d
0,        299,        299,        1,    38016, 0xf51721d4
